<?xml version="1.0" standalone="no"?>
<!DOCTYPE svg PUBLIC "-//W3C//DTD SVG 20010904//EN"
 "http://www.w3.org/TR/2001/REC-SVG-20010904/DTD/svg10.dtd">
<svg version="1.0" xmlns="http://www.w3.org/2000/svg"
 width="512.000000pt" height="512.000000pt" viewBox="0 0 512.000000 512.000000"
 preserveAspectRatio="xMidYMid meet">

<g transform="translate(0.000000,512.000000) scale(0.100000,-0.100000)"
fill="#000000" stroke="none">
<path d="M518 4758 c-102 -7 -161 -31 -215 -85 -52 -52 -78 -111 -102 -230
-63 -306 -16 -604 134 -864 l43 -76 -33 -99 c-19 -54 -41 -133 -50 -174 -22
-102 -31 -346 -16 -451 40 -283 182 -530 409 -712 45 -36 93 -36 122 0 32 42
19 68 -89 173 -148 145 -230 284 -278 478 -22 84 -24 367 -5 457 63 286 183
505 393 714 306 306 734 492 1226 532 412 33 867 -68 1197 -265 409 -244 671
-598 741 -1000 8 -49 15 -95 15 -102 0 -12 -123 -14 -757 -13 -591 0 -754 3
-738 12 50 30 95 85 95 116 0 74 -73 92 -147 36 -78 -59 -155 -60 -231 0 -57
44 -101 47 -131 9 -36 -45 -22 -84 48 -136 41 -31 64 -42 125 -62 17 -6 13
-11 -24 -43 -23 -20 -53 -60 -66 -87 l-24 -51 0 -427 c0 -236 -2 -428 -4 -428
-2 0 -32 13 -67 30 -94 43 -171 61 -294 67 -162 8 -338 -32 -472 -108 -29 -16
-59 -29 -67 -29 -8 0 -55 16 -104 35 -76 29 -95 33 -120 24 -28 -9 -52 -44
-52 -73 0 -26 40 -63 87 -81 26 -10 49 -19 51 -20 2 -2 -13 -25 -34 -52 -20
-26 -46 -68 -57 -93 -26 -59 -28 -168 -4 -230 24 -63 38 -173 26 -213 -14 -50
-10 -246 6 -292 8 -21 13 -40 12 -41 -61 -45 -157 -26 -218 44 -42 48 -51 72
-110 289 -78 292 -126 391 -248 512 -155 155 -275 189 -392 111 -65 -42 -94
-99 -94 -180 1 -83 29 -139 92 -183 113 -78 142 -126 193 -317 68 -252 82
-298 115 -365 90 -186 257 -325 445 -369 172 -41 363 4 539 128 l65 45 35 -28
c105 -81 266 -157 421 -197 156 -40 316 -45 1180 -42 l795 3 61 28 c155 72
218 220 169 399 l-7 27 439 3 440 3 41 29 c26 18 51 47 67 79 l25 51 0 921 c0
1044 5 981 -80 1065 -77 78 -88 80 -510 80 l-367 0 -12 88 c-13 105 -43 229
-76 312 l-23 60 44 77 c130 227 188 514 154 758 -29 209 -73 309 -163 371 -61
42 -125 55 -277 55 -299 -1 -562 -95 -797 -286 l-31 -26 -99 30 c-221 68 -410
95 -668 95 -258 0 -447 -27 -668 -95 l-98 -30 -62 49 c-249 195 -550 285 -869
260z m362 -177 c138 -36 264 -93 354 -158 l49 -35 -79 -42 c-43 -23 -107 -58
-140 -79 l-62 -38 -83 61 c-106 78 -270 159 -422 208 l-118 38 29 27 c16 16
42 32 58 37 50 17 329 4 414 -19z m3081 19 c19 -5 48 -23 63 -39 l28 -30 -43
-11 c-185 -46 -378 -139 -526 -252 l-52 -40 -53 33 c-29 18 -93 54 -141 79
l-88 47 36 27 c51 39 191 112 261 136 60 21 164 46 219 53 65 8 262 6 296 -3z
m-3481 -257 c112 -37 213 -86 306 -149 l84 -55 -112 -107 c-109 -105 -225
-244 -270 -323 -12 -21 -25 -39 -29 -39 -21 0 -102 227 -120 338 -12 74 -14
258 -3 328 6 44 7 45 38 38 17 -4 65 -18 106 -31z m3617 -10 c13 -79 6 -272
-12 -358 -20 -94 -52 -191 -87 -259 l-25 -49 -43 64 c-87 129 -228 285 -344
381 l-28 24 58 40 c102 71 194 116 323 161 69 23 131 43 138 43 6 0 15 -21 20
-47z m808 -1459 c67 -32 65 -6 65 -782 l0 -700 -116 -4 c-108 -3 -117 -5 -135
-27 -24 -30 -24 -72 0 -102 18 -22 27 -24 136 -27 l117 -4 -4 -120 c-3 -105
-5 -121 -22 -134 -17 -12 -215 -14 -1328 -14 l-1308 0 0 135 0 135 1054 0
c743 0 1062 3 1085 11 67 23 69 103 4 137 -16 9 -295 12 -1082 12 l-1061 0 0
705 c0 780 -2 752 63 780 27 12 237 14 1265 15 1104 0 1237 -2 1267 -16z
m-2980 -968 c69 -19 138 -50 190 -86 l45 -31 0 -199 0 -200 -44 0 c-40 0 -46
3 -67 38 -35 56 -99 121 -139 142 -136 69 -353 26 -452 -91 -51 -61 -96 -83
-158 -77 -88 9 -144 72 -143 161 1 83 86 185 218 263 61 35 194 82 267 93 77
12 215 5 283 -13z m-1617 -196 c62 -41 119 -102 164 -175 41 -66 74 -161 124
-350 53 -204 90 -291 152 -353 117 -118 276 -134 430 -45 28 17 50 23 66 19
22 -5 86 -68 86 -84 0 -13 -102 -75 -164 -100 -188 -76 -372 -38 -517 107 -90
90 -125 167 -193 425 -66 247 -102 323 -183 394 -136 117 -144 132 -98 177 34
35 63 31 133 -15z m1528 -276 c18 -9 38 -22 45 -30 10 -12 -12 -14 -147 -14
-138 0 -156 2 -139 14 62 43 181 58 241 30z m314 -339 l0 -135 -458 0 c-380 0
-461 2 -478 14 -17 13 -19 27 -19 119 0 73 4 109 14 120 12 15 58 17 477 17
l464 0 0 -135z m984 -306 c84 -66 71 -205 -25 -258 -39 -22 -39 -22 -562 -18
-491 3 -526 5 -597 24 -178 50 -325 127 -440 231 l-45 41 821 1 c818 0 821 0
848 -21z m803 -11 c32 -36 43 -63 43 -110 0 -58 -28 -108 -76 -135 -38 -22
-48 -23 -318 -23 -261 0 -278 1 -271 18 27 61 36 127 27 181 -6 31 -13 64 -17
74 -7 16 11 17 292 17 298 0 300 0 320 -22z"/>
<path d="M1575 3345 c-23 -22 -25 -32 -25 -113 0 -80 2 -91 23 -110 31 -29 72
-28 102 3 23 22 25 32 25 110 0 78 -2 88 -25 110 -13 14 -36 25 -50 25 -14 0
-37 -11 -50 -25z"/>
<path d="M3029 3357 c-28 -22 -39 -55 -39 -122 0 -69 17 -118 45 -129 31 -12
65 -6 85 14 17 17 20 33 20 113 0 85 -2 96 -23 115 -26 24 -63 28 -88 9z"/>
<path d="M1045 3029 c-103 -12 -147 -29 -163 -62 -11 -23 -11 -34 -2 -57 18
-43 54 -54 131 -40 35 7 130 14 211 15 81 2 156 9 167 15 44 23 38 103 -9 127
-28 14 -221 16 -335 2z"/>
<path d="M1294 2745 c-105 -44 -250 -123 -286 -157 -35 -33 -36 -70 -3 -103
34 -35 63 -31 152 21 79 47 196 102 265 124 67 21 90 86 45 128 -33 31 -77 27
-173 -13z"/>
</g>
</svg>
